HIERARCHY
ROOT root
{
  OFFSET 0 93.2929 0
  CHANNELS 6 Xposition Yposition Zposition Zrotation Xrotation Yrotation
  JOINT torso_1
  {
    OFFSET 0 5.07867 -1.15138
    CHANNELS 6 Xposition Yposition Zposition Zrotation Xrotation Yrotation
    JOINT torso_2
    {
      OFFSET 0 5.61661 1.07143
      CHANNELS 6 Xposition Yposition Zposition Zrotation Xrotation Yrotation
      JOINT torso_3
      {
        OFFSET -1.02604e-17 5.98978 0.11501
        CHANNELS 6 Xposition Yposition Zposition Zrotation Xrotation Yrotation
        JOINT torso_4
        {
          OFFSET -1.10457e-17 6.50583 -0.443523
          CHANNELS 6 Xposition Yposition Zposition Zrotation Xrotation Yrotation
          JOINT torso_5
          {
            OFFSET -1.97295e-17 7.60548 -1.50593
            CHANNELS 6 Xposition Yposition Zposition Zrotation Xrotation Yrotation
            JOINT torso_6
            {
              OFFSET -2.53307e-17 9.49737 -0.914492
              CHANNELS 6 Xposition Yposition Zposition Zrotation Xrotation Yrotation
              JOINT torso_7
              {
                OFFSET -2.90401e-17 10.5513 1.57691
                CHANNELS 6 Xposition Yposition Zposition Zrotation Xrotation Yrotation
                JOINT neck_1
                {
                  OFFSET -1.29193e-17 4.78644 0.715339
                  CHANNELS 6 Xposition Yposition Zposition Zrotation Xrotation Yrotation
                  JOINT neck_2
                  {
                    OFFSET -1.8116e-17 4.82109 0.421791
                    CHANNELS 6 Xposition Yposition Zposition Zrotation Xrotation Yrotation
                    JOINT head
                    {
                      OFFSET -2.00958e-17 4.83041 0.765062
                      CHANNELS 6 Xposition Yposition Zposition Zrotation Xrotation Yrotation
                      End Site
                      {
                        OFFSET 0 0.1 0
                      }
                    }
                  }
                }
                JOINT l_shoulder
                {
                  OFFSET 1.23299 -7.60731 7.53374
                  CHANNELS 6 Xposition Yposition Zposition Zrotation Xrotation Yrotation
                  JOINT l_up_arm
                  {
                    OFFSET 12.9547 3.2495 -3.26872
                    CHANNELS 6 Xposition Yposition Zposition Zrotation Xrotation Yrotation
                    JOINT l_low_arm
                    {
                      OFFSET 29.2081 0.0598081 0.137039
                      CHANNELS 6 Xposition Yposition Zposition Zrotation Xrotation Yrotation
                      JOINT l_hand
                      {
                        OFFSET 24.234 0.0496219 0.113701
                        CHANNELS 6 Xposition Yposition Zposition Zrotation Xrotation Yrotation
                        End Site
                        {
                          OFFSET 0.1 0 0
                        }
                      }
                    }
                  }
                }
                JOINT r_shoulder
                {
                  OFFSET -1.23299 -7.60729 7.53365
                  CHANNELS 6 Xposition Yposition Zposition Zrotation Xrotation Yrotation
                  JOINT r_up_arm
                  {
                    OFFSET -12.9547 3.2495 -3.26872
                    CHANNELS 6 Xposition Yposition Zposition Zrotation Xrotation Yrotation
                    JOINT r_low_arm
                    {
                      OFFSET -29.2081 0.0598081 0.137039
                      CHANNELS 6 Xposition Yposition Zposition Zrotation Xrotation Yrotation
                      JOINT r_hand
                      {
                        OFFSET -24.234 0.0496218 0.113702
                        CHANNELS 6 Xposition Yposition Zposition Zrotation Xrotation Yrotation
                        End Site
                        {
                          OFFSET -0.1 0 0
                        }
                      }
                    }
                  }
                }
              }
            }
          }
        }
      }
    }
  }
  JOINT l_up_leg
  {
    OFFSET 9.23673 -4.20556 2.0327
    CHANNELS 6 Xposition Yposition Zposition Zrotation Xrotation Yrotation
    JOINT l_low_leg
    {
      OFFSET -0.852353 -38.7721 -0.655187
      CHANNELS 6 Xposition Yposition Zposition Zrotation Xrotation Yrotation
      JOINT l_foot
      {
        OFFSET -2.32622 -40.4017 -6.04875
        CHANNELS 6 Xposition Yposition Zposition Zrotation Xrotation Yrotation
        JOINT l_toes
        {
          OFFSET 0.779096 -9.8844 12.4959
          CHANNELS 6 Xposition Yposition Zposition Zrotation Xrotation Yrotation
          End Site
          {
            OFFSET 0 0 0.1
          }
        }
      }
    }
  }
  JOINT r_up_leg
  {
    OFFSET -9.23673 -4.20556 2.0327
    CHANNELS 6 Xposition Yposition Zposition Zrotation Xrotation Yrotation
    JOINT r_low_leg
    {
      OFFSET 0.852353 -38.7721 -0.655187
      CHANNELS 6 Xposition Yposition Zposition Zrotation Xrotation Yrotation
      JOINT r_foot
      {
        OFFSET 2.32622 -40.4017 -6.04875
        CHANNELS 6 Xposition Yposition Zposition Zrotation Xrotation Yrotation
        JOINT r_toes
        {
          OFFSET -0.779096 -9.8844 12.4959
          CHANNELS 6 Xposition Yposition Zposition Zrotation Xrotation Yrotation
          End Site
          {
            OFFSET 0 0 0.1
          }
        }
      }
    }
  }
}
MOTION
Frames: 5
Frame Time: 0.016667
0 93.2929 0 -0 0 -0 0 5.07867 -1.15138 -0 0 -0 0 5.61661 1.07143 -0 0 -0 -1.02604e-17 5.98978 0.11501 -0 0 -0 -1.10457e-17 6.50583 -0.443523 -0 0 -0 -1.97295e-17 7.60548 -1.50593 -0 0 -0 -2.53307e-17 9.49737 -0.914492 -0 0 -0 -2.90401e-17 10.5513 1.57691 -0 0 -0 -1.29193e-17 4.78644 0.715339 -0 0 -0 -1.8116e-17 4.82109 0.421791 -0 0 -0 -2.00958e-17 4.83041 0.765062 -0 0 -0 1.23299 -7.60731 7.53374 -0 0 -0 12.9547 3.2495 -3.26872 -0 0 -0 29.2081 0.0598081 0.137039 -0 0 -0 24.234 0.0496219 0.113701 -0 0 -0 -1.23299 -7.60729 7.53365 -0 0 -0 -12.9547 3.2495 -3.26872 -0 0 -0 -29.2081 0.0598081 0.137039 -0 0 -0 -24.234 0.0496218 0.113702 -0 0 -0 9.23673 -4.20556 2.0327 -0 0 -0 -0.852353 -38.7721 -0.655187 -0 0 -0 -2.32622 -40.4017 -6.04875 -0 0 -0 0.779096 -9.8844 12.4959 -0 0 -0 -9.23673 -4.20556 2.0327 -0 0 -0 0.852353 -38.7721 -0.655187 -0 0 -0 2.32622 -40.4017 -6.04875 -0 0 -0 -0.779096 -9.8844 12.4959 -0 0 -0 
2.12634 90.0049 59.1329 7.64713 2.62193 32.9641 0 5.07867 -1.15138 -2.24698 -0.323176 0.269162 0 5.61661 1.07143 -1.73713 0.158283 0.0201916 -1.02604e-17 5.98978 0.11501 -1.2486 0.885518 0.093332 -1.10457e-17 6.50583 -0.443523 -0.755314 1.71987 0.148052 -1.97295e-17 7.60548 -1.50593 -0.164704 2.04706 0.255753 -2.53307e-17 9.49737 -0.914492 0.512417 1.93456 -0.079433 -2.90401e-17 10.5513 1.57691 -0.0554766 0.47257 -0.103087 -1.29193e-17 4.78644 0.715339 0.14686 4.14591 -8.84327 -1.8116e-17 4.82109 0.421791 1.98267 -2.79559 -4.14052 -2.00958e-17 4.83041 0.765062 1.87826 -4.42391 -1.36686 1.23299 -7.60731 7.53374 0.81828 2.0863 1.88708 12.9547 3.2495 -3.26872 -85.8876 13.4291 7.92038 29.2081 0.0598081 0.137039 3.34266 -0.461629 -16.3134 24.234 0.0496219 0.113701 -2.61822 -47.6538 -0.637578 -1.23299 -7.60729 7.53365 0.438564 2.26539 -3.3355 -12.9547 3.2495 -3.26872 94.9977 21.3838 1.04684 -29.2081 0.0598081 0.137039 -4.04472 -0.686769 19.8601 -24.234 0.0496218 0.113702 -5.5087 9.40988 5.22855 9.23673 -4.20556 2.0327 1.83929 4.1551 24.799 -0.852353 -38.7721 -0.655187 -1.88584 7.03049 -0.00701315 -2.32622 -40.4017 -6.04875 -5.94344 -7.89085 15.9531 0.779096 -9.8844 12.4959 2.48481e-17 -7.95139e-16 1.2424e-17 -9.23673 -4.20556 2.0327 -14.5866 -17.8822 15.413 0.852353 -38.7721 -0.655187 3.67701 13.5667 -0.19949 2.32622 -40.4017 -6.04875 4.46922 -5.74984 -15.0253 -0.779096 -9.8844 12.4959 -5.96354e-16 -5.59082e-16 -1.27471e-14 
2.25609 89.9948 59.0419 7.65028 2.62857 32.6026 0 5.07867 -1.15138 -2.21829 -0.462197 0.247046 0 5.61661 1.07143 -1.71949 0.0635341 0.00906714 -1.02604e-17 5.98978 0.11501 -1.23447 0.833551 0.0926607 -1.10457e-17 6.50583 -0.443523 -0.743833 1.74679 0.156221 -1.97295e-17 7.60548 -1.50593 -0.155852 2.15511 0.267946 -2.53307e-17 9.49737 -0.914492 0.52031 2.09268 -0.0766686 -2.90401e-17 10.5513 1.57691 -0.0511515 0.457165 -0.0925669 -1.29193e-17 4.78644 0.715339 -0.0372358 3.37704 -8.81708 -1.8116e-17 4.82109 0.421791 1.92315 -2.65399 -4.14529 -2.00958e-17 4.83041 0.765062 1.91728 -3.91761 -1.29353 1.23299 -7.60731 7.53374 0.511729 2.19301 1.88439 12.9547 3.2495 -3.26872 -85.5592 13.4948 8.0522 29.2081 0.0598081 0.137039 3.39966 -0.478142 -16.599 24.234 0.0496219 0.113701 -2.64475 -47.7682 -0.492812 -1.23299 -7.60729 7.53365 1.36588 2.31043 -3.07225 -12.9547 3.2495 -3.26872 93.8844 21.3616 0.612638 -29.2081 0.0598081 0.137039 -4.56153 -0.884045 22.5198 -24.234 0.0496218 0.113702 -5.49865 8.96099 5.76263 9.23673 -4.20556 2.0327 1.70899 4.19398 25.0469 -0.852353 -38.7721 -0.655187 -1.88222 7.01707 -0.00722172 -2.32622 -40.4017 -6.04875 -5.80173 -7.9703 15.9529 0.779096 -9.8844 12.4959 2.48481e-17 -7.95139e-16 1.2424e-17 -9.23673 -4.20556 2.0327 -14.6254 -18.1648 15.7061 0.852353 -38.7721 -0.655187 3.7089 13.6807 -0.205009 2.32622 -40.4017 -6.04875 4.77535 -5.6052 -15.0377 -0.779096 -9.8844 12.4959 -1.0002e-16 -5.80796e-16 -1.27688e-14 
2.38531 90.0062 58.9569 7.65184 2.51656 32.1 0 5.07867 -1.15138 -2.15271 -0.625008 0.240618 0 5.61661 1.07143 -1.6757 -0.0431777 0.0212365 -1.02604e-17 5.98978 0.11501 -1.202 0.785369 0.11748 -1.10457e-17 6.50583 -0.443523 -0.722061 1.80604 0.192402 -1.97295e-17 7.60548 -1.50593 -0.13853 2.31097 0.309376 -2.53307e-17 9.49737 -0.914492 0.540249 2.30909 -0.0445769 -2.90401e-17 10.5513 1.57691 -0.0441178 0.433773 -0.0784867 -1.29193e-17 4.78644 0.715339 -0.267722 2.4119 -8.83624 -1.8116e-17 4.82109 0.421791 1.87158 -2.48512 -4.17248 -2.00958e-17 4.83041 0.765062 1.89509 -3.28069 -1.13446 1.23299 -7.60731 7.53374 0.129076 2.31873 1.83306 12.9547 3.2495 -3.26872 -85.1301 13.6794 8.05792 29.2081 0.0598081 0.137039 3.43678 -0.489066 -16.7853 24.234 0.0496219 0.113701 -2.73349 -48.0362 -0.369927 -1.23299 -7.60729 7.53365 2.5208 2.37317 -2.70057 -12.9547 3.2495 -3.26872 92.407 21.1978 0.295452 -29.2081 0.0598081 0.137039 -5.16597 -1.15074 25.694 -24.234 0.0496218 0.113702 -5.49348 8.90105 6.21418 9.23673 -4.20556 2.0327 1.63447 4.34426 25.4489 -0.852353 -38.7721 -0.655187 -1.87828 7.00251 -0.00744721 -2.32622 -40.4017 -6.04875 -5.60687 -7.9717 15.9634 0.779096 -9.8844 12.4959 2.48481e-17 -7.95139e-16 1.2424e-17 -9.23673 -4.20556 2.0327 -14.5258 -18.3746 16.1676 0.852353 -38.7721 -0.655187 3.7259 13.7415 -0.207978 2.32622 -40.4017 -6.04875 5.05783 -5.31705 -15.0609 -0.779096 -9.8844 12.4959 1.29223e-15 -6.42948e-16 -1.28278e-14 
2.52525 90.0345 58.8861 7.63025 2.33758 31.502 0 5.07867 -1.15138 -2.05739 -0.822554 0.252482 0 5.61661 1.07143 -1.61077 -0.168248 0.0580953 -1.02604e-17 5.98978 0.11501 -1.15469 0.740167 0.16809 -1.10457e-17 6.50583 -0.443523 -0.692174 1.90461 0.256316 -1.97295e-17 7.60548 -1.50593 -0.113827 2.52241 0.379813 -2.53307e-17 9.49737 -0.914492 0.572519 2.59264 0.0166674 -2.90401e-17 10.5513 1.57691 -0.03408 0.400164 -0.0620657 -1.29193e-17 4.78644 0.715339 -0.539787 1.28157 -8.86968 -1.8116e-17 4.82109 0.421791 1.81433 -2.30414 -4.20644 -2.00958e-17 4.83041 0.765062 1.83242 -2.55087 -1.00265 1.23299 -7.60731 7.53374 -0.274424 2.45394 1.7323 12.9547 3.2495 -3.26872 -84.6927 14.0359 7.92782 29.2081 0.0598081 0.137039 3.44891 -0.49266 -16.8461 24.234 0.0496219 0.113701 -2.87265 -48.4584 -0.345234 -1.23299 -7.60729 7.53365 3.87307 2.44799 -2.20326 -12.9547 3.2495 -3.26872 90.6226 20.8488 0.226191 -29.2081 0.0598081 0.137039 -5.82366 -1.48826 29.2424 -24.234 0.0496218 0.113702 -5.55326 9.01328 6.52851 9.23673 -4.20556 2.0327 1.60413 4.56266 25.9595 -0.852353 -38.7721 -0.655187 -1.87101 6.97554 -0.00786197 -2.32622 -40.4017 -6.04875 -5.38926 -7.91528 15.9758 0.779096 -9.8844 12.4959 2.48481e-17 -7.95139e-16 1.2424e-17 -9.23673 -4.20556 2.0327 -14.3262 -18.5025 16.7471 0.852353 -38.7721 -0.655187 3.71422 13.6998 -0.205936 2.32622 -40.4017 -6.04875 5.36625 -4.95574 -15.0915 -0.779096 -9.8844 12.4959 4.9759e-16 -6.11912e-16 -1.27875e-14 
